<svg width="33" height="33" viewBox="0 0 33 33" fill="none" xmlns="http://www.w3.org/2000/svg">
<g id="instagram_svgrepo.com" clip-path="url(#clip0_302_961)">
<path id="Vector" d="M24.7907 8.78487H24.8078M9.97046 30.7153H23.677C27.4619 30.7153 30.5303 27.647 30.5303 23.8621V10.1555C30.5303 6.37056 27.4619 3.30225 23.677 3.30225H9.97046C6.1855 3.30225 3.11719 6.37056 3.11719 10.1555V23.8621C3.11719 27.647 6.1855 30.7153 9.97046 30.7153ZM23.2487 17.0088C23.2487 20.5573 20.3722 23.4337 16.8237 23.4337C13.2753 23.4337 10.3988 20.5573 10.3988 17.0088C10.3988 13.4604 13.2753 10.5839 16.8237 10.5839C20.3722 10.5839 23.2487 13.4604 23.2487 17.0088Z" stroke="white" stroke-width="3.42664" stroke-linecap="round" stroke-linejoin="round"/>
</g>
<defs>
<clipPath id="clip0_302_961">
<rect width="32" height="32" fill="white" transform="translate(0.929688 0.681152)"/>
</clipPath>
</defs>
</svg>
