<svg width="37" height="37" viewBox="0 0 37 37" fill="none" xmlns="http://www.w3.org/2000/svg">
<g id="linkedin-161_svgrepo.com" clip-path="url(#clip0_302_951)">
<g id="Page-1">
<g id="Dribbble-Light-Preview">
<g id="icons">
<path id="linkedin-[#161]" fill-rule="evenodd" clip-rule="evenodd" d="M36.6812 36.6812H29.345V23.8446C29.345 20.3232 27.7915 18.3585 25.0056 18.3585C21.9739 18.3585 20.1747 20.4057 20.1747 23.8446V36.6812H12.8384V12.8384H20.1747V15.5197C20.1747 15.5197 22.4764 11.4808 27.6631 11.4808C32.8517 11.4808 36.6812 14.647 36.6812 21.1983V36.6812ZM4.47878 9.02523C2.00463 9.02523 0 7.00421 0 4.51172C0 2.02106 2.00463 0 4.47878 0C6.95109 0 8.95571 2.02106 8.95571 4.51172C8.95755 7.00421 6.95109 9.02523 4.47878 9.02523ZM0 36.6812H9.17031V12.8384H0V36.6812Z" fill="white"/>
</g>
</g>
</g>
</g>
<defs>
<clipPath id="clip0_302_951">
<rect width="36.6812" height="36.6812" fill="white"/>
</clipPath>
</defs>
</svg>
